<?xml version="1.0" encoding="UTF-8" standalone="no"?>
<svg
   width="256mm"
   height="256mm"
   viewBox="0 0 256 256"
   version="1.1"
   id="svg1"
   xml:space="preserve"
   xmlns="http://www.w3.org/2000/svg"
   xmlns:svg="http://www.w3.org/2000/svg"><defs
     id="defs1"><style
       id="style1">.cls-1{fill:#fff;}</style></defs><g
     id="layer1"><rect
       style="fill:#1a1a1a;stroke-width:0.264583"
       id="rect2"
       width="256"
       height="256"
       x="-7.1054274e-15"
       y="7.1054274e-15" /><g
       id="Layer_1-2"
       data-name="Layer 1"
       transform="matrix(1.5097916,0,0,1.5097916,31.999901,31.969705)"><path
         class="cls-1"
         d="M 18.45,63.47 A 18.4,18.4 0 0 0 2.31,45.23 73.13,73.13 0 0 0 2.31,81.7 18.38,18.38 0 0 0 18.45,63.47"
         id="path1" /><path
         class="cls-1"
         d="M 29.13,57.7 A 5.77,5.77 0 1 0 34.9,63.47 5.77,5.77 0 0 0 29.13,57.7"
         id="path2" /><path
         class="cls-1"
         d="m 108.72,63.47 a 18.38,18.38 0 0 0 16.14,18.23 73.13,73.13 0 0 0 0,-36.47 18.4,18.4 0 0 0 -16.14,18.24"
         id="path3" /><path
         class="cls-1"
         d="m 98,57.7 a 5.77,5.77 0 1 0 5.76,5.77 A 5.77,5.77 0 0 0 98,57.7"
         id="path4" /><path
         class="cls-1"
         d="m 63.46,108.77 a 18.39,18.39 0 0 0 -18.23,16.13 73.13,73.13 0 0 0 36.47,0 18.38,18.38 0 0 0 -18.24,-16.13"
         id="path5" /><path
         class="cls-1"
         d="m 63.47,92.31 a 5.77,5.77 0 1 0 5.76,5.77 5.77,5.77 0 0 0 -5.76,-5.77"
         id="path6" /><path
         class="cls-1"
         d="M 63.47,18.44 A 18.37,18.37 0 0 0 81.7,2.31 a 73.13,73.13 0 0 0 -36.47,0 18.39,18.39 0 0 0 18.24,16.13"
         id="path7" /><path
         class="cls-1"
         d="m 63.47,23.37 a 5.77,5.77 0 1 0 5.76,5.76 5.76,5.76 0 0 0 -5.76,-5.76"
         id="path8" /><path
         class="cls-1"
         d="m 95.44,95.44 a 18.4,18.4 0 0 0 -1.5,24.29 73,73 0 0 0 25.78,-25.79 18.39,18.39 0 0 0 -24.28,1.5"
         id="path9" /><path
         class="cls-1"
         d="m 83.8,83.8 a 5.77,5.77 0 1 0 8.16,0 5.78,5.78 0 0 0 -8.16,0"
         id="path10" /><path
         class="cls-1"
         d="M 31.59,31.59 A 18.36,18.36 0 0 0 33.09,7.31 72.93,72.93 0 0 0 7.31,33.09 18.36,18.36 0 0 0 31.59,31.59"
         id="path11" /><path
         class="cls-1"
         d="m 35.07,35.08 a 5.77,5.77 0 1 0 8.16,0 5.78,5.78 0 0 0 -8.16,0"
         id="path12" /><path
         class="cls-1"
         d="M 95.4,31.53 A 18.39,18.39 0 0 0 119.69,33 72.88,72.88 0 0 0 93.9,7.25 18.39,18.39 0 0 0 95.4,31.53"
         id="path13" /><path
         class="cls-1"
         d="m 91.92,43.17 a 5.76,5.76 0 1 0 -8.15,0 5.76,5.76 0 0 0 8.15,0"
         id="path14" /><path
         class="cls-1"
         d="M 31.56,95.37 A 18.39,18.39 0 0 0 7.28,93.87 73,73 0 0 0 33.06,119.66 18.38,18.38 0 0 0 31.56,95.37"
         id="path15" /><path
         class="cls-1"
         d="m 35,83.73 a 5.77,5.77 0 1 0 8.16,0 5.79,5.79 0 0 0 -8.16,0"
         id="path16" /></g></g></svg>
